<svg width="384" height="125" viewBox="0 0 384 125" fill="none" xmlns="http://www.w3.org/2000/svg">
<path fill-rule="evenodd" clip-rule="evenodd" d="M50.853 21.1799H65.421V35.7469H50.853V21.1799Z" fill="#2E3092"/>
<path fill-rule="evenodd" clip-rule="evenodd" d="M29.155 21.17H0C2.692 29.395 8.21 35.218 19.953 35.735H29.153" fill="#2E3092"/>
<path fill-rule="evenodd" clip-rule="evenodd" d="M50.694 56.765C68.5567 56.757 86.4184 56.749 104.279 56.741C103.52 66.43 97.841 71.599 86.218 71.312L50.698 71.33" fill="#2E3092"/>
<path fill-rule="evenodd" clip-rule="evenodd" d="M89.56 92.188V106.755H104.131V92.186L89.56 92.188Z" fill="#2E3092"/>
<path fill-rule="evenodd" clip-rule="evenodd" d="M125.633 92.188V106.755C135.289 106.755 144.944 106.755 154.598 106.755C151.332 98.582 144.798 93.555 134.741 92.186" fill="#2E3092"/>
<path fill-rule="evenodd" clip-rule="evenodd" d="M82.35 53.233L32.675 53.192V0.291992H47.098L47.241 0.434992V38.666H82.351" fill="#A7A9AC"/>
<path fill-rule="evenodd" clip-rule="evenodd" d="M122.008 124.812L121.953 74.667H70.206V89.226H107.442V124.806" fill="#A7A9AC"/>
<path fill-rule="evenodd" clip-rule="evenodd" d="M313.419 42.499H326.264V33.639H303.276V71.213H313.419V65.576L326.264 59.104V49.904L313.419 55.921V42.499ZM326.264 42.499H338.01C339.381 42.499 339.426 43.651 338.372 44.238L326.263 49.908V59.108L347.563 48.37C350.042 46.541 352.045 45.081 351.955 40.415C351.881 36.494 347.782 33.79 344.101 33.643H326.264" fill="#2E3092"/>
<path fill-rule="evenodd" clip-rule="evenodd" d="M370.038 71.119L370.032 51.807C370.032 51.774 359.522 60.389 354.297 64.571C349.004 68.995 345.89 70.987 340.36 71.12" fill="#A7A9AC"/>
<path fill-rule="evenodd" clip-rule="evenodd" d="M380.081 98.4039L380.967 96.5449H382.542L381.078 98.4039H380.081ZM382.413 102.804C381.782 103.033 381.125 103.186 380.458 103.261C380.101 103.295 379.751 103.376 379.415 103.5C379.222 103.574 379.057 103.706 378.942 103.877C378.827 104.049 378.768 104.252 378.773 104.459C378.77 104.611 378.801 104.761 378.863 104.9C378.926 105.038 379.019 105.161 379.135 105.259C379.438 105.493 379.817 105.608 380.199 105.58C380.628 105.588 381.051 105.482 381.426 105.273C381.773 105.088 382.053 104.799 382.226 104.447C382.373 104.065 382.438 103.656 382.416 103.247L382.413 102.804ZM382.513 105.482C382.132 105.817 381.698 106.087 381.23 106.282C380.807 106.439 380.36 106.518 379.909 106.515C379.261 106.561 378.62 106.358 378.117 105.948C377.913 105.766 377.752 105.542 377.643 105.291C377.535 105.04 377.482 104.769 377.489 104.496C377.487 104.173 377.564 103.854 377.714 103.567C377.864 103.281 378.081 103.036 378.348 102.853C378.611 102.676 378.901 102.545 379.207 102.464C379.557 102.383 379.911 102.322 380.268 102.282C380.994 102.215 381.711 102.077 382.41 101.871C382.416 101.708 382.416 101.599 382.416 101.558C382.436 101.372 382.415 101.184 382.357 101.007C382.298 100.83 382.203 100.667 382.077 100.529C381.687 100.23 381.202 100.085 380.712 100.12C380.276 100.085 379.839 100.187 379.464 100.412C379.149 100.682 378.937 101.053 378.864 101.461L377.696 101.305C377.771 100.864 377.952 100.448 378.222 100.092C378.495 99.7532 378.862 99.5038 379.278 99.3759C379.793 99.201 380.334 99.1151 380.878 99.1219C381.377 99.1064 381.876 99.1806 382.349 99.3409C382.667 99.4463 382.953 99.6291 383.182 99.8729C383.368 100.113 383.496 100.393 383.556 100.691C383.607 101.055 383.628 101.423 383.617 101.791V103.391C383.596 104.096 383.621 104.802 383.692 105.504C383.741 105.804 383.842 106.093 383.992 106.357H382.746C382.614 106.083 382.533 105.787 382.507 105.484L382.513 105.482ZM373.585 106.357V99.2899H374.661V100.358C374.841 99.9767 375.102 99.6394 375.426 99.3699C375.65 99.2089 375.919 99.1228 376.195 99.1239C376.632 99.1355 377.058 99.2703 377.422 99.5129L377.013 100.624C376.748 100.462 376.445 100.372 376.134 100.366C375.878 100.365 375.629 100.448 375.426 100.603C375.213 100.769 375.058 100.998 374.982 101.258C374.843 101.711 374.775 102.184 374.782 102.658V106.358L373.585 106.357ZM370.774 102.806C370.143 103.035 369.486 103.188 368.819 103.263C368.463 103.298 368.112 103.378 367.776 103.502C367.582 103.579 367.415 103.714 367.299 103.888C367.19 104.059 367.133 104.258 367.135 104.461C367.132 104.613 367.163 104.763 367.225 104.901C367.287 105.04 367.38 105.163 367.495 105.261C367.799 105.496 368.178 105.61 368.561 105.582C368.989 105.59 369.412 105.484 369.786 105.275C370.133 105.091 370.413 104.802 370.586 104.449C370.734 104.067 370.799 103.658 370.776 103.249L370.774 102.806ZM370.874 105.484C370.493 105.819 370.061 106.089 369.593 106.284C369.17 106.441 368.723 106.52 368.272 106.517C367.624 106.563 366.983 106.361 366.48 105.95C366.276 105.768 366.115 105.544 366.006 105.293C365.898 105.042 365.845 104.771 365.852 104.498C365.849 104.175 365.926 103.855 366.075 103.569C366.225 103.282 366.444 103.037 366.711 102.855C366.973 102.679 367.263 102.547 367.568 102.466C367.919 102.385 368.274 102.324 368.632 102.284C369.357 102.217 370.073 102.079 370.771 101.873C370.779 101.71 370.779 101.601 370.779 101.56C370.799 101.374 370.778 101.186 370.72 101.009C370.661 100.831 370.565 100.668 370.438 100.531C370.049 100.232 369.565 100.087 369.076 100.122C368.64 100.087 368.203 100.189 367.828 100.414C367.514 100.684 367.302 101.055 367.228 101.463L366.062 101.307C366.137 100.866 366.317 100.45 366.586 100.094C366.859 99.7552 367.228 99.5058 367.644 99.3779C368.159 99.2026 368.7 99.1167 369.244 99.1239C369.744 99.1086 370.243 99.1828 370.717 99.3429C371.034 99.4488 371.32 99.6316 371.55 99.8749C371.734 100.116 371.862 100.396 371.922 100.693C371.975 101.057 371.996 101.425 371.985 101.793V103.393C371.965 104.098 371.989 104.804 372.058 105.506C372.107 105.806 372.208 106.095 372.358 106.359H371.11C370.979 106.085 370.898 105.789 370.871 105.486L370.874 105.484ZM358.862 101.239H361.382C362.012 101.296 362.641 101.132 363.163 100.775C363.341 100.607 363.479 100.402 363.57 100.175C363.66 99.9481 363.7 99.704 363.687 99.4599C363.698 99.0854 363.587 98.7175 363.372 98.4109C363.177 98.132 362.89 97.93 362.562 97.8399C362.164 97.7679 361.759 97.7384 361.355 97.7519H358.862V101.239ZM357.562 106.359V96.5979H361.244C361.741 96.5896 362.238 96.623 362.729 96.6979C363.159 96.7601 363.571 96.9158 363.935 97.1539C364.273 97.3949 364.543 97.719 364.719 98.0949C364.918 98.5085 365.019 98.9628 365.013 99.4219C365.03 100.202 364.747 100.96 364.221 101.537C363.826 101.865 363.369 102.11 362.877 102.257C362.385 102.405 361.868 102.452 361.358 102.396H358.858V106.362L357.562 106.359ZM348.302 102.82C348.247 103.549 348.457 104.273 348.895 104.859C349.081 105.072 349.31 105.242 349.567 105.358C349.824 105.475 350.103 105.535 350.386 105.534C350.668 105.533 350.947 105.472 351.204 105.354C351.46 105.236 351.688 105.065 351.873 104.851C352.307 104.254 352.514 103.523 352.458 102.787C352.51 102.073 352.299 101.364 351.865 100.795C351.68 100.584 351.451 100.414 351.195 100.298C350.939 100.182 350.661 100.122 350.38 100.122C350.099 100.122 349.821 100.182 349.565 100.298C349.309 100.414 349.08 100.584 348.895 100.795C348.457 101.375 348.246 102.095 348.302 102.82ZM347.067 102.82C347.025 102.285 347.101 101.748 347.292 101.247C347.482 100.745 347.781 100.292 348.167 99.9199C348.783 99.3888 349.575 99.1064 350.388 99.1279C350.83 99.1122 351.27 99.1896 351.68 99.3552C352.09 99.5207 352.46 99.7708 352.767 100.089C353.09 100.445 353.338 100.862 353.497 101.315C353.656 101.768 353.723 102.248 353.694 102.728C353.729 103.466 353.589 104.201 353.285 104.874C353.019 105.389 352.603 105.812 352.092 106.087C351.572 106.374 350.986 106.522 350.392 106.518C349.948 106.537 349.504 106.462 349.091 106.299C348.677 106.135 348.303 105.887 347.992 105.569C347.665 105.194 347.416 104.759 347.257 104.287C347.099 103.816 347.036 103.318 347.07 102.822L347.067 102.82ZM340.998 102.825C340.943 103.548 341.145 104.268 341.57 104.856C341.726 105.063 341.928 105.231 342.159 105.348C342.391 105.465 342.646 105.527 342.905 105.53C343.164 105.533 343.421 105.477 343.655 105.366C343.889 105.255 344.095 105.092 344.256 104.889C344.667 104.321 344.863 103.624 344.808 102.925C344.867 102.174 344.671 101.425 344.25 100.8C344.089 100.586 343.879 100.414 343.639 100.296C343.399 100.177 343.135 100.117 342.867 100.119C342.61 100.117 342.356 100.174 342.125 100.288C341.895 100.401 341.693 100.566 341.538 100.771C341.127 101.373 340.937 102.099 340.998 102.825ZM344.788 106.355V105.461C344.583 105.797 344.291 106.072 343.944 106.256C343.596 106.441 343.205 106.53 342.812 106.512C342.259 106.518 341.717 106.356 341.258 106.048C340.776 105.728 340.394 105.277 340.158 104.748C339.889 104.144 339.758 103.489 339.772 102.828C339.764 102.172 339.884 101.521 340.126 100.911C340.332 100.372 340.7 99.9097 341.181 99.5899C341.651 99.2826 342.202 99.1211 342.764 99.1259C343.143 99.1202 343.518 99.2059 343.857 99.3758C344.196 99.5457 344.489 99.7948 344.711 100.102V96.6019H345.898V106.363L344.788 106.355ZM331.088 102.816C331.032 103.545 331.243 104.27 331.681 104.855C331.867 105.068 332.096 105.238 332.353 105.354C332.61 105.471 332.889 105.531 333.172 105.53C333.454 105.529 333.733 105.468 333.99 105.35C334.246 105.232 334.474 105.061 334.659 104.847C335.093 104.25 335.301 103.519 335.244 102.783C335.297 102.069 335.086 101.36 334.651 100.791C334.466 100.58 334.237 100.41 333.981 100.294C333.725 100.178 333.447 100.118 333.166 100.118C332.885 100.118 332.607 100.178 332.351 100.294C332.095 100.41 331.866 100.58 331.681 100.791C331.242 101.371 331.031 102.091 331.088 102.816ZM329.854 102.816C329.811 102.281 329.888 101.744 330.078 101.242C330.268 100.741 330.568 100.288 330.954 99.9159C331.57 99.3847 332.362 99.1023 333.175 99.1239C333.617 99.1084 334.057 99.1859 334.467 99.3514C334.877 99.517 335.247 99.7669 335.554 100.085C335.876 100.441 336.124 100.858 336.283 101.311C336.442 101.764 336.51 102.245 336.481 102.724C336.516 103.461 336.376 104.196 336.074 104.87C335.807 105.384 335.392 105.807 334.882 106.083C334.36 106.37 333.772 106.519 333.176 106.514C332.732 106.533 332.289 106.458 331.875 106.294C331.462 106.131 331.087 105.882 330.776 105.565C330.119 104.806 329.789 103.819 329.858 102.818L329.854 102.816ZM323.771 102.826C323.715 103.549 323.918 104.269 324.344 104.857C324.5 105.064 324.702 105.232 324.933 105.349C325.165 105.466 325.42 105.528 325.679 105.531C325.938 105.534 326.195 105.478 326.429 105.367C326.663 105.256 326.869 105.093 327.03 104.89C327.44 104.321 327.634 103.625 327.58 102.926C327.639 102.175 327.442 101.426 327.021 100.801C326.86 100.588 326.651 100.415 326.411 100.297C326.171 100.178 325.906 100.118 325.639 100.12C325.382 100.118 325.127 100.175 324.896 100.289C324.665 100.402 324.463 100.567 324.307 100.772C323.899 101.375 323.71 102.1 323.771 102.826ZM327.559 106.356V105.462C327.354 105.798 327.062 106.073 326.715 106.257C326.367 106.442 325.976 106.531 325.583 106.513C325.03 106.519 324.488 106.357 324.028 106.049C323.546 105.728 323.165 105.277 322.928 104.749C322.66 104.145 322.529 103.489 322.542 102.829C322.535 102.173 322.655 101.522 322.896 100.912C323.103 100.373 323.472 99.9121 323.951 99.5909C324.421 99.2838 324.971 99.1224 325.532 99.1269C325.928 99.123 326.319 99.2164 326.671 99.3989C326.99 99.5683 327.267 99.8076 327.481 100.099V96.5989H328.674V106.36L327.559 106.356ZM320.15 102.805C319.519 103.034 318.862 103.187 318.195 103.262C317.838 103.297 317.487 103.377 317.15 103.501C316.958 103.576 316.793 103.708 316.679 103.879C316.565 104.051 316.506 104.254 316.512 104.46C316.509 104.612 316.539 104.762 316.601 104.901C316.664 105.039 316.756 105.162 316.872 105.26C317.175 105.494 317.554 105.608 317.936 105.581C318.364 105.589 318.787 105.483 319.161 105.274C319.508 105.09 319.788 104.801 319.961 104.448C320.108 104.066 320.173 103.657 320.151 103.248L320.15 102.805ZM320.25 105.483C319.87 105.818 319.436 106.089 318.968 106.283C318.545 106.44 318.098 106.519 317.647 106.516C316.999 106.562 316.358 106.359 315.855 105.949C315.651 105.767 315.49 105.543 315.381 105.292C315.273 105.041 315.22 104.77 315.227 104.497C315.225 104.174 315.302 103.855 315.452 103.569C315.602 103.282 315.819 103.037 316.086 102.854C316.349 102.677 316.639 102.546 316.945 102.465C317.295 102.384 317.649 102.323 318.006 102.283C318.732 102.216 319.449 102.078 320.148 101.872C320.154 101.709 320.154 101.6 320.154 101.559C320.174 101.373 320.153 101.185 320.095 101.008C320.036 100.83 319.94 100.667 319.813 100.53C319.424 100.231 318.94 100.086 318.451 100.121C318.015 100.086 317.58 100.188 317.205 100.413C316.891 100.684 316.679 101.054 316.605 101.462L315.439 101.306C315.515 100.865 315.695 100.449 315.965 100.093C316.238 99.7537 316.607 99.5043 317.023 99.3769C317.538 99.2015 318.079 99.1156 318.623 99.1229C319.123 99.1076 319.622 99.1818 320.096 99.3419C320.406 99.427 320.684 99.5996 320.898 99.8391C321.112 100.079 321.252 100.375 321.302 100.692C321.354 101.056 321.374 101.424 321.364 101.792V103.392C321.343 104.097 321.368 104.803 321.439 105.505C321.489 105.805 321.59 106.093 321.739 106.358H320.488C320.357 106.083 320.277 105.788 320.25 105.485V105.483ZM314.715 105.285L314.885 106.342C314.587 106.408 314.284 106.445 313.979 106.452C313.629 106.472 313.28 106.398 312.968 106.239C312.747 106.12 312.571 105.93 312.468 105.701C312.337 105.24 312.287 104.759 312.319 104.281V100.221H311.439V99.2879H312.319V97.5349L313.511 96.8189V99.2879H314.718V100.221H313.511V104.351C313.498 104.573 313.519 104.795 313.573 105.011C313.614 105.107 313.684 105.188 313.773 105.242C313.899 105.306 314.039 105.337 314.18 105.332C314.359 105.326 314.537 105.31 314.714 105.283L314.715 105.285ZM305.047 104.242L306.225 104.058C306.263 104.479 306.463 104.87 306.784 105.146C307.15 105.421 307.603 105.557 308.06 105.53C308.495 105.562 308.928 105.444 309.287 105.195C309.408 105.102 309.507 104.982 309.576 104.845C309.644 104.709 309.68 104.558 309.682 104.405C309.685 104.276 309.654 104.149 309.591 104.036C309.529 103.923 309.438 103.828 309.328 103.762C308.939 103.579 308.529 103.445 308.107 103.362C307.483 103.223 306.872 103.029 306.281 102.783C305.968 102.645 305.702 102.417 305.518 102.128C305.333 101.84 305.238 101.503 305.244 101.161C305.238 100.855 305.315 100.554 305.465 100.288C305.605 100.023 305.805 99.794 306.05 99.6209C306.282 99.4602 306.54 99.3398 306.813 99.2649C307.15 99.168 307.499 99.1198 307.85 99.1219C308.346 99.1129 308.84 99.1963 309.306 99.3679C309.673 99.4866 309.996 99.7122 310.234 100.016C310.457 100.341 310.599 100.715 310.649 101.106L309.475 101.27C309.438 100.936 309.272 100.63 309.013 100.417C308.697 100.195 308.314 100.089 307.929 100.117C307.519 100.08 307.109 100.176 306.757 100.389C306.651 100.459 306.564 100.554 306.502 100.666C306.44 100.777 306.406 100.902 306.403 101.029C306.401 101.18 306.451 101.328 306.546 101.446C306.67 101.591 306.83 101.701 307.01 101.765C307.127 101.812 307.479 101.915 308.066 102.072C308.669 102.216 309.262 102.403 309.839 102.631C310.155 102.762 310.428 102.979 310.628 103.257C310.828 103.56 310.928 103.917 310.914 104.28C310.913 104.683 310.792 105.077 310.566 105.411C310.317 105.776 309.967 106.061 309.558 106.229C309.085 106.427 308.577 106.525 308.065 106.517C307.32 106.569 306.58 106.366 305.965 105.943C305.453 105.514 305.123 104.906 305.044 104.243L305.047 104.242ZM296.857 106.356V96.5949H303.911V97.7489H298.158V100.739H303.558V101.885H298.158V105.204H304.149V106.356H296.857ZM287.568 102.817C287.513 103.546 287.724 104.27 288.161 104.856C288.344 105.072 288.573 105.245 288.831 105.362C289.09 105.479 289.371 105.537 289.654 105.531C289.937 105.536 290.218 105.478 290.475 105.359C290.732 105.241 290.959 105.066 291.139 104.848C291.574 104.252 291.782 103.52 291.726 102.784C291.778 102.07 291.567 101.361 291.133 100.792C290.947 100.581 290.719 100.411 290.463 100.295C290.206 100.179 289.928 100.119 289.647 100.119C289.366 100.119 289.088 100.179 288.831 100.295C288.575 100.411 288.347 100.581 288.161 100.792C287.723 101.372 287.512 102.092 287.568 102.817ZM286.335 102.817C286.292 102.282 286.369 101.745 286.559 101.243C286.749 100.742 287.049 100.289 287.435 99.9169C288.052 99.3857 288.844 99.1033 289.658 99.1249C290.1 99.1096 290.54 99.1872 290.95 99.3528C291.359 99.5183 291.73 99.7681 292.037 100.086C292.359 100.442 292.607 100.859 292.766 101.312C292.925 101.765 292.992 102.246 292.963 102.725C292.997 103.462 292.857 104.198 292.554 104.871C292.287 105.386 291.872 105.808 291.362 106.084C290.841 106.371 290.256 106.519 289.662 106.515C289.218 106.534 288.775 106.459 288.361 106.295C287.948 106.132 287.573 105.883 287.262 105.566C286.603 104.808 286.272 103.82 286.341 102.819L286.335 102.817ZM280.254 102.827C280.198 103.551 280.401 104.27 280.827 104.858C280.983 105.064 281.185 105.233 281.416 105.349C281.647 105.466 281.902 105.528 282.161 105.532C282.42 105.535 282.677 105.479 282.911 105.368C283.145 105.257 283.351 105.094 283.512 104.891C283.923 104.322 284.118 103.626 284.064 102.927C284.124 102.176 283.927 101.427 283.506 100.802C283.344 100.588 283.135 100.416 282.894 100.297C282.654 100.179 282.389 100.119 282.121 100.121C281.864 100.119 281.61 100.177 281.379 100.29C281.149 100.403 280.948 100.569 280.792 100.773C280.383 101.376 280.193 102.101 280.254 102.827ZM284.042 106.357V105.463C283.837 105.799 283.546 106.074 283.198 106.259C282.85 106.444 282.459 106.532 282.066 106.514C281.513 106.519 280.972 106.358 280.513 106.05C280.031 105.73 279.649 105.279 279.413 104.75C279.143 104.146 279.011 103.491 279.024 102.83C279.017 102.174 279.138 101.523 279.378 100.913C279.584 100.373 279.954 99.9113 280.436 99.5919C280.906 99.2847 281.456 99.1233 282.017 99.1279C282.396 99.1225 282.771 99.2084 283.111 99.3782C283.45 99.5481 283.743 99.797 283.966 100.104V96.6039H285.158V106.365L284.042 106.357ZM270.342 102.818C270.286 103.547 270.496 104.271 270.933 104.857C271.119 105.07 271.348 105.24 271.606 105.357C271.863 105.473 272.142 105.533 272.425 105.532C272.707 105.531 272.986 105.47 273.243 105.352C273.5 105.234 273.728 105.063 273.913 104.849C274.347 104.252 274.554 103.521 274.498 102.785C274.549 102.071 274.339 101.363 273.905 100.793C273.719 100.581 273.491 100.412 273.235 100.296C272.978 100.18 272.7 100.12 272.419 100.12C272.138 100.12 271.86 100.18 271.603 100.296C271.347 100.412 271.119 100.581 270.933 100.793C270.496 101.373 270.286 102.093 270.342 102.818ZM269.107 102.818C269.065 102.283 269.141 101.746 269.332 101.244C269.522 100.743 269.821 100.29 270.207 99.9179C270.823 99.3865 271.615 99.1041 272.428 99.1259C272.87 99.1105 273.31 99.1881 273.72 99.3537C274.129 99.5192 274.5 99.769 274.807 100.087C275.129 100.443 275.377 100.86 275.536 101.313C275.695 101.766 275.763 102.247 275.734 102.726C275.768 103.463 275.628 104.199 275.325 104.872C275.059 105.387 274.643 105.81 274.132 106.085C273.612 106.372 273.026 106.52 272.432 106.516C271.988 106.535 271.545 106.46 271.131 106.296C270.718 106.133 270.343 105.884 270.032 105.567C269.373 104.809 269.043 103.821 269.112 102.82L269.107 102.818ZM266.786 99.2919H267.986V106.359H266.786V99.2919ZM266.786 96.5979H267.986V97.9829H266.786V96.5979ZM262.472 106.359V99.2919H263.548V100.36C263.728 99.979 263.989 99.6419 264.312 99.3719C264.536 99.2109 264.805 99.1248 265.081 99.1259C265.518 99.1374 265.944 99.2723 266.308 99.5149L265.899 100.626C265.634 100.463 265.33 100.374 265.019 100.368C264.763 100.367 264.514 100.45 264.311 100.605C264.099 100.773 263.944 101.001 263.867 101.26C263.728 101.713 263.66 102.186 263.667 102.66V106.36L262.472 106.359ZM257.332 98.4099L258.218 96.5509H259.793L258.328 98.4099H257.332ZM259.662 102.81C259.03 103.039 258.374 103.193 257.706 103.267C257.35 103.302 256.999 103.382 256.663 103.506C256.499 103.575 256.355 103.685 256.245 103.825C256.136 103.965 256.063 104.131 256.035 104.307C256.008 104.483 256.025 104.663 256.086 104.83C256.147 104.998 256.25 105.147 256.385 105.263C256.688 105.497 257.066 105.611 257.448 105.584C257.877 105.592 258.3 105.486 258.675 105.277C259.022 105.093 259.302 104.804 259.475 104.451C259.622 104.069 259.688 103.66 259.666 103.251L259.662 102.81ZM259.762 105.488C259.381 105.823 258.948 106.093 258.48 106.288C258.057 106.445 257.609 106.524 257.158 106.521C256.51 106.566 255.868 106.364 255.364 105.954C255.161 105.771 255 105.547 254.892 105.296C254.784 105.046 254.731 104.775 254.738 104.502C254.735 104.168 254.817 103.84 254.977 103.547C255.125 103.271 255.338 103.035 255.597 102.859C255.859 102.683 256.149 102.551 256.454 102.47C256.805 102.389 257.16 102.328 257.518 102.288C258.243 102.221 258.959 102.083 259.657 101.877C259.665 101.714 259.665 101.605 259.665 101.564C259.685 101.378 259.665 101.19 259.606 101.013C259.547 100.835 259.451 100.672 259.324 100.535C258.935 100.236 258.451 100.091 257.962 100.126C257.526 100.091 257.09 100.193 256.715 100.418C256.401 100.688 256.189 101.059 256.115 101.467L254.949 101.311C255.026 100.871 255.206 100.455 255.475 100.098C255.747 99.7588 256.115 99.5093 256.531 99.3819C257.046 99.207 257.587 99.1211 258.131 99.1279C258.631 99.1126 259.129 99.1867 259.603 99.3469C259.912 99.4331 260.19 99.606 260.404 99.8453C260.618 100.085 260.759 100.38 260.81 100.697C260.861 101.061 260.881 101.429 260.871 101.797V103.397C260.851 104.102 260.875 104.808 260.945 105.51C260.995 105.809 261.097 106.098 261.245 106.363H259.998C259.867 106.089 259.787 105.793 259.761 105.49L259.762 105.488ZM254.224 105.29L254.396 106.347C254.097 106.413 253.793 106.45 253.487 106.457C253.138 106.477 252.79 106.403 252.479 106.244C252.257 106.126 252.081 105.936 251.979 105.706C251.847 105.245 251.796 104.764 251.828 104.286V100.226H250.95V99.2929H251.828V97.5399L253.022 96.8239V99.2929H254.222V100.226H253.022V104.356C253.009 104.578 253.029 104.8 253.083 105.016C253.124 105.112 253.194 105.193 253.283 105.247C253.409 105.312 253.55 105.343 253.692 105.337C253.869 105.331 254.046 105.315 254.222 105.288L254.224 105.29ZM248.83 99.2929H250.03V106.36H248.83V99.2929ZM248.83 96.5989H250.03V97.9839H248.83V96.5989ZM241.775 104.247C241.854 104.91 242.184 105.518 242.696 105.947C243.311 106.37 244.051 106.573 244.796 106.521C245.308 106.529 245.815 106.431 246.287 106.233C246.697 106.065 247.048 105.78 247.298 105.415C247.523 105.081 247.643 104.687 247.644 104.284C247.658 103.922 247.559 103.564 247.36 103.261C247.16 102.982 246.886 102.765 246.569 102.635C245.993 102.407 245.401 102.22 244.798 102.076C244.211 101.918 243.857 101.816 243.74 101.769C243.561 101.705 243.401 101.595 243.278 101.45C243.184 101.332 243.133 101.184 243.135 101.033C243.138 100.906 243.172 100.781 243.233 100.669C243.295 100.558 243.383 100.463 243.489 100.393C243.841 100.18 244.251 100.084 244.661 100.121C245.046 100.093 245.429 100.199 245.745 100.421C246.003 100.635 246.169 100.941 246.207 101.274L247.381 101.11C247.332 100.718 247.189 100.345 246.964 100.02C246.727 99.7159 246.405 99.4901 246.038 99.3719C245.572 99.2003 245.078 99.1169 244.582 99.1259C244.231 99.1237 243.882 99.1718 243.545 99.2689C243.272 99.3443 243.013 99.4646 242.78 99.6249C242.536 99.7985 242.335 100.027 242.195 100.292C242.047 100.559 241.972 100.86 241.976 101.165C241.97 101.507 242.065 101.843 242.249 102.132C242.433 102.42 242.698 102.648 243.011 102.787C243.603 103.032 244.215 103.226 244.84 103.366C245.262 103.449 245.672 103.583 246.061 103.766C246.171 103.832 246.262 103.927 246.324 104.04C246.387 104.153 246.418 104.28 246.415 104.409C246.413 104.562 246.376 104.712 246.308 104.849C246.24 104.986 246.141 105.106 246.02 105.199C245.641 105.426 245.205 105.541 244.763 105.533C244.321 105.524 243.89 105.391 243.52 105.15C243.2 104.873 243 104.483 242.961 104.062L241.775 104.247ZM237.944 106.36V99.2929H239.02V100.361C239.2 99.9803 239.46 99.6432 239.783 99.3729C240.008 99.2119 240.278 99.1258 240.554 99.1269C240.991 99.1387 241.417 99.2735 241.781 99.5159L241.372 100.627C241.107 100.465 240.803 100.375 240.492 100.369C240.236 100.368 239.986 100.451 239.782 100.606C239.571 100.773 239.417 101.002 239.341 101.261C239.202 101.714 239.134 102.187 239.141 102.661V106.361L237.944 106.36ZM231.53 102.148H235.475C235.463 101.667 235.304 101.2 235.019 100.812C234.844 100.588 234.619 100.408 234.362 100.287C234.106 100.165 233.824 100.105 233.54 100.112C233.283 100.105 233.027 100.151 232.788 100.246C232.549 100.34 232.332 100.483 232.149 100.664C231.762 101.06 231.541 101.589 231.53 102.143V102.148ZM235.461 104.078L236.696 104.227C236.539 104.898 236.157 105.495 235.612 105.917C235.021 106.333 234.309 106.542 233.587 106.512C233.134 106.536 232.681 106.463 232.258 106.298C231.836 106.134 231.453 105.881 231.135 105.557C230.489 104.819 230.161 103.856 230.221 102.878C230.158 101.872 230.488 100.881 231.142 100.113C231.445 99.7866 231.815 99.5293 232.227 99.3584C232.638 99.1876 233.082 99.1073 233.527 99.1229C233.959 99.1097 234.389 99.1895 234.787 99.3568C235.185 99.5242 235.543 99.7752 235.836 100.093C236.476 100.846 236.799 101.818 236.736 102.805C236.736 102.879 236.736 102.987 236.73 103.124H231.468C231.463 103.78 231.698 104.415 232.129 104.91C232.316 105.112 232.544 105.272 232.797 105.379C233.05 105.487 233.324 105.539 233.599 105.532C234.002 105.544 234.398 105.422 234.724 105.184C235.074 104.898 235.331 104.515 235.466 104.084L235.461 104.078ZM226.018 106.361L223.326 99.2939H224.598L226.118 103.526C226.282 103.982 226.431 104.459 226.568 104.949C226.676 104.575 226.819 104.131 227.009 103.605L228.584 99.2939H229.818L227.14 106.361H226.018ZM221.281 99.2939H222.481V106.361H221.281V99.2939ZM221.281 96.5999H222.481V97.9849H221.281V96.5999ZM213.94 106.361V99.2939H215.016V100.294C215.256 99.9194 215.59 99.6145 215.985 99.4099C216.38 99.2052 216.822 99.108 217.266 99.1279C217.669 99.125 218.067 99.2046 218.438 99.3619C218.756 99.4843 219.034 99.694 219.238 99.9669C219.422 100.231 219.55 100.53 219.614 100.846C219.667 101.232 219.689 101.622 219.682 102.012V106.361H218.482V102.061C218.499 101.689 218.451 101.316 218.339 100.961C218.244 100.721 218.072 100.52 217.85 100.39C217.597 100.238 217.306 100.162 217.011 100.171C216.525 100.164 216.054 100.337 215.688 100.656C215.474 100.909 215.315 101.204 215.22 101.522C215.125 101.84 215.096 102.174 215.136 102.503V106.361H213.94ZM210.899 96.5999H212.187V102.243C212.216 103.034 212.103 103.824 211.854 104.575C211.623 105.166 211.2 105.663 210.654 105.986C209.959 106.374 209.17 106.56 208.375 106.524C207.6 106.554 206.83 106.393 206.133 106.054C205.567 105.76 205.124 105.273 204.885 104.682C204.604 103.901 204.477 103.072 204.511 102.243V96.5999H205.806V102.225C205.775 102.855 205.854 103.486 206.037 104.09C206.19 104.487 206.477 104.818 206.849 105.025C207.283 105.254 207.769 105.367 208.26 105.352C208.625 105.388 208.993 105.349 209.342 105.238C209.691 105.127 210.014 104.946 210.291 104.706C210.779 103.976 210.994 103.098 210.897 102.225L210.899 96.5999ZM195.231 102.822C195.175 103.551 195.386 104.276 195.824 104.861C196.007 105.078 196.236 105.251 196.494 105.368C196.752 105.484 197.034 105.542 197.317 105.536C197.6 105.541 197.881 105.483 198.138 105.364C198.395 105.246 198.622 105.071 198.802 104.853C199.237 104.257 199.445 103.525 199.389 102.789C199.441 102.075 199.23 101.366 198.796 100.797C198.61 100.585 198.382 100.416 198.126 100.3C197.869 100.184 197.591 100.124 197.31 100.124C197.029 100.124 196.751 100.184 196.494 100.3C196.238 100.416 196.01 100.585 195.824 100.797C195.386 101.377 195.175 102.097 195.231 102.822ZM193.997 102.822C193.954 102.287 194.031 101.75 194.221 101.248C194.411 100.747 194.711 100.294 195.097 99.9219C195.714 99.3907 196.506 99.1083 197.32 99.1299C197.762 99.1145 198.202 99.1921 198.612 99.3577C199.021 99.5232 199.392 99.7731 199.699 100.091C200.021 100.447 200.269 100.864 200.428 101.317C200.587 101.77 200.655 102.251 200.626 102.73C200.66 103.467 200.52 104.203 200.217 104.876C199.951 105.391 199.536 105.814 199.025 106.089C198.505 106.376 197.919 106.524 197.325 106.52C196.881 106.539 196.437 106.464 196.024 106.301C195.61 106.137 195.236 105.889 194.925 105.571C194.266 104.813 193.935 103.825 194.004 102.824L193.997 102.822ZM190.146 106.363V99.2959H191.222V100.364C191.401 99.9825 191.663 99.6451 191.987 99.3759C192.211 99.2144 192.48 99.1282 192.756 99.1299C193.193 99.1417 193.619 99.2765 193.983 99.5189L193.574 100.63C193.309 100.467 193.005 100.378 192.694 100.372C192.439 100.371 192.19 100.454 191.987 100.609C191.774 100.775 191.619 101.004 191.543 101.264C191.404 101.717 191.336 102.19 191.343 102.664V106.364L190.146 106.363ZM189.238 105.291L189.408 106.348C189.11 106.414 188.807 106.451 188.502 106.458C188.153 106.478 187.805 106.404 187.494 106.245C187.272 106.127 187.095 105.937 186.994 105.707C186.861 105.246 186.809 104.765 186.843 104.287V100.227H185.963V99.2939H186.843V97.5409L188.037 96.8249V99.2939H189.237V100.227H188.037V104.357C188.023 104.579 188.043 104.801 188.096 105.017C188.137 105.113 188.207 105.193 188.296 105.248C188.422 105.313 188.562 105.344 188.703 105.338C188.882 105.332 189.06 105.316 189.237 105.289L189.238 105.291ZM179.286 106.361V99.2939H180.362V100.294C180.602 99.9194 180.936 99.6145 181.331 99.4099C181.726 99.2052 182.168 99.108 182.612 99.1279C183.015 99.125 183.413 99.2046 183.784 99.3619C184.102 99.4854 184.379 99.6949 184.584 99.9669C184.768 100.231 184.895 100.53 184.958 100.846C185.011 101.232 185.034 101.622 185.025 102.012V106.361H183.825V102.061C183.842 101.689 183.793 101.316 183.682 100.961C183.587 100.721 183.414 100.52 183.191 100.39C182.939 100.238 182.648 100.162 182.353 100.171C181.867 100.163 181.396 100.336 181.031 100.656C180.817 100.909 180.658 101.204 180.563 101.522C180.468 101.84 180.439 102.174 180.479 102.503V106.361H179.286ZM172.857 102.149H176.798C176.786 101.667 176.626 101.201 176.341 100.813C176.166 100.589 175.941 100.409 175.684 100.288C175.428 100.166 175.146 100.106 174.862 100.113C174.605 100.107 174.349 100.152 174.11 100.247C173.871 100.342 173.654 100.484 173.471 100.665C173.083 101.061 172.861 101.59 172.851 102.144L172.857 102.149ZM176.782 104.079L178.018 104.228C177.863 104.9 177.48 105.497 176.934 105.918C176.343 106.334 175.631 106.543 174.909 106.513C174.456 106.537 174.003 106.464 173.58 106.299C173.157 106.135 172.774 105.882 172.456 105.558C171.81 104.82 171.482 103.857 171.542 102.879C171.479 101.873 171.809 100.882 172.463 100.114C172.767 99.788 173.137 99.5309 173.548 99.3602C173.96 99.1894 174.403 99.1088 174.848 99.1239C175.28 99.111 175.71 99.1908 176.109 99.3582C176.507 99.5255 176.866 99.7764 177.159 100.094C177.798 100.848 178.121 101.82 178.059 102.806C178.059 102.88 178.059 102.988 178.051 103.125H172.782C172.777 103.781 173.013 104.416 173.444 104.911C173.631 105.113 173.859 105.273 174.113 105.381C174.367 105.488 174.641 105.54 174.917 105.533C175.32 105.545 175.715 105.423 176.04 105.185C176.39 104.899 176.649 104.517 176.783 104.085L176.782 104.079ZM169.465 102.94L170.752 103.267C170.55 104.215 170.037 105.069 169.294 105.692C168.556 106.262 167.642 106.556 166.71 106.525C165.812 106.566 164.922 106.343 164.149 105.883C163.47 105.43 162.944 104.782 162.641 104.024C162.296 103.195 162.123 102.304 162.13 101.406C162.107 100.486 162.307 99.5737 162.711 98.7469C163.075 98.0183 163.652 97.4178 164.366 97.0249C165.092 96.633 165.906 96.4318 166.731 96.4399C167.613 96.4083 168.482 96.6695 169.2 97.1829C169.88 97.7123 170.368 98.4499 170.589 99.2829L169.315 99.5829C169.156 98.9758 168.813 98.4328 168.333 98.0279C167.858 97.6934 167.286 97.5237 166.705 97.5449C166.039 97.5181 165.382 97.7067 164.831 98.0829C164.329 98.4399 163.956 98.9496 163.767 99.5359C163.562 100.137 163.459 100.768 163.46 101.403C163.446 102.144 163.568 102.881 163.822 103.577C164.031 104.155 164.43 104.644 164.953 104.966C165.452 105.269 166.025 105.427 166.608 105.424C167.275 105.445 167.926 105.224 168.443 104.802C168.984 104.315 169.344 103.66 169.466 102.943" fill="#808285"/>
<path fill-rule="evenodd" clip-rule="evenodd" d="M324.843 71.2039L370.386 34.3989C374.794 30.8359 383.475 32.5989 383.475 39.9909V71.1909H374.592V44.0909C374.608 43.9261 374.573 43.7603 374.492 43.6161C374.411 43.4718 374.287 43.3561 374.137 43.2848C373.988 43.2135 373.82 43.1901 373.657 43.2177C373.494 43.2452 373.343 43.3225 373.225 43.4389L344.225 66.2839C338.195 70.4079 331.658 71.6229 324.841 71.2079" fill="#2E3092"/>
<path fill-rule="evenodd" clip-rule="evenodd" d="M257.53 33.7339V64.4959C257.53 68.5069 261.719 71.2149 265.485 71.2149H291.967C296.236 71.2149 299.793 68.1879 299.793 64.0729V29.5909H299.633C295.078 30.5609 291.595 33.0519 289.94 38.1309V59.8889C289.925 60.2367 289.839 60.5778 289.687 60.8911C289.535 61.2044 289.321 61.4832 289.057 61.7104C288.793 61.9375 288.486 62.1082 288.154 62.2118C287.821 62.3155 287.471 62.3499 287.125 62.3129H269.776C269.456 62.3472 269.132 62.3167 268.824 62.2233C268.516 62.1299 268.23 61.9754 267.983 61.7691C267.736 61.5628 267.532 61.3089 267.385 61.0225C267.238 60.7361 267.15 60.423 267.127 60.1019V33.7339C267.127 33.7339 257.527 33.8399 257.527 33.7339" fill="#2E3092"/>
<path fill-rule="evenodd" clip-rule="evenodd" d="M209.756 71.21H249.689C255.318 71.21 257.654 64.246 251.28 59.995L226.275 42.348H244.935C250.416 40.933 253.075 37.877 254.098 33.87V33.699H215.207C209.556 33.699 205.607 39.911 212.796 44.806L238.285 62.35H209.756" fill="#2E3092"/>
<path fill-rule="evenodd" clip-rule="evenodd" d="M206.569 33.718H168.633C165.533 33.718 162.552 34.354 162.433 38.06V66.228C162.681 70.251 164.417 71.205 169.133 71.205H206.572V62.21H175.211C173.423 62.21 172.452 61.698 172.374 59.925V58.078C172.368 57.7501 172.432 57.4247 172.562 57.1238C172.692 56.8228 172.885 56.5533 173.129 56.3335C173.372 56.1138 173.66 55.9488 173.973 55.8499C174.285 55.7509 174.615 55.7203 174.941 55.76H193.364C198.164 55.617 199.85 52.688 200.405 48.751H175.205C173.062 48.751 172.405 48.109 172.405 46.305V44.659C172.405 43.732 173.166 42.577 175.005 42.577H197.105C202.797 41.192 205.53 38.087 206.567 33.999" fill="#2E3092"/>
<path fill-rule="evenodd" clip-rule="evenodd" d="M160.014 70.816H135.146C131.646 70.751 128.181 70.327 125.774 67.981L114.366 57.848C113.238 56.9633 112.457 55.709 112.162 54.3057C111.867 52.9024 112.077 51.44 112.754 50.176L119.917 35.965C120.559 35.2629 121.336 34.6967 122.201 34.3001C123.066 33.9035 124.002 33.6845 124.953 33.656H159.978C158.955 37.732 156.251 41.181 150.625 42.584H129.36C129.046 42.5312 128.723 42.574 128.433 42.7068C128.144 42.8397 127.901 43.0564 127.736 43.329C126.513 45.123 124.611 49.412 123.482 51.468C123.238 51.8341 123.128 52.2729 123.169 52.7108C123.21 53.1487 123.401 53.559 123.709 53.873L131.124 61.005C133.081 62.187 134.024 62.083 137.107 62.294H160.015" fill="#2E3092"/>
</svg>
