<svg width="670" height="293" viewBox="0 0 670 293" fill="none" xmlns="http://www.w3.org/2000/svg">
<path d="M161.5 57.5H1.5V233.5H161.5V57.5Z" stroke="white" stroke-width="3" stroke-linejoin="round"/>
<path d="M34.851 144V81.63H59.029V88.098H43.552V108.734H56.103V114.894H43.552V137.763H59.183V144H34.851Z" fill="white"/>
<path d="M107.812 145.702C104.172 145.702 101.13 144.922 98.686 143.362C96.294 141.802 94.474 139.644 93.226 136.888C91.978 134.132 91.25 130.934 91.042 127.294L98.842 125.188C98.998 127.424 99.336 129.582 99.856 131.662C100.428 133.742 101.338 135.458 102.586 136.81C103.834 138.11 105.576 138.76 107.812 138.76C110.1 138.76 111.816 138.136 112.96 136.888C114.156 135.588 114.754 133.742 114.754 131.35C114.754 128.49 114.104 126.202 112.804 124.486C111.504 122.718 109.866 120.95 107.89 119.182L97.282 109.822C95.202 108.002 93.668 106.026 92.68 103.894C91.692 101.71 91.198 99.032 91.198 95.86C91.198 91.232 92.524 87.644 95.176 85.096C97.828 82.548 101.442 81.274 106.018 81.274C108.514 81.274 110.698 81.612 112.57 82.288C114.494 82.912 116.08 83.9 117.328 85.252C118.628 86.604 119.642 88.32 120.37 90.4C121.15 92.428 121.67 94.82 121.93 97.576L114.442 99.604C114.286 97.524 113.974 95.626 113.506 93.91C113.038 92.142 112.206 90.738 111.01 89.698C109.866 88.606 108.202 88.06 106.018 88.06C103.834 88.06 102.118 88.658 100.87 89.854C99.674 90.998 99.076 92.714 99.076 95.002C99.076 96.926 99.388 98.512 100.012 99.76C100.688 101.008 101.754 102.282 103.21 103.582L113.896 112.942C116.288 115.022 118.394 117.518 120.214 120.43C122.034 123.29 122.944 126.696 122.944 130.648C122.944 133.768 122.294 136.472 120.994 138.76C119.694 140.996 117.9 142.712 115.612 143.908C113.376 145.104 110.776 145.702 107.812 145.702Z" fill="white"/>
<path d="M34.914 215V151.82H48.642C53.322 151.82 57.014 152.548 59.718 154.004C62.474 155.408 64.424 157.54 65.568 160.4C66.764 163.26 67.362 166.822 67.362 171.086V194.33C67.362 198.802 66.764 202.572 65.568 205.64C64.424 208.708 62.526 211.048 59.874 212.66C57.274 214.22 53.764 215 49.344 215H34.914ZM43.728 208.682H48.72C51.944 208.682 54.232 208.058 55.584 206.81C56.936 205.562 57.742 203.742 58.002 201.35C58.314 198.958 58.47 196.072 58.47 192.692V172.178C58.47 168.902 58.262 166.25 57.846 164.222C57.43 162.194 56.52 160.712 55.116 159.776C53.712 158.84 51.502 158.372 48.486 158.372H43.728V208.682Z" fill="white"/>
<path d="M85.697 217L86.852 154.63H95.399L106.41 205.219L117.498 154.63H125.968L127.123 217H120.116L119.423 171.724L108.874 217H103.946L93.474 171.724L92.781 217H85.697Z" fill="white"/>
<g filter="url(#filter0_d)">
<path d="M183.411 235.004V75.4339H218.083C229.903 75.4339 239.228 77.2726 246.057 80.9499C253.018 84.4959 257.943 89.8806 260.832 97.1039C263.853 104.327 265.363 113.324 265.363 124.093V182.799C265.363 194.094 263.853 203.615 260.832 211.364C257.943 219.113 253.149 225.023 246.451 229.094C239.884 233.034 231.019 235.004 219.856 235.004H183.411ZM205.672 219.047H218.28C226.423 219.047 232.201 217.471 235.616 214.319C239.031 211.167 241.066 206.57 241.723 200.529C242.511 194.488 242.905 187.199 242.905 178.662V126.851C242.905 118.577 242.38 111.879 241.329 106.757C240.278 101.635 237.98 97.8919 234.434 95.5279C230.888 93.1639 225.306 91.9819 217.689 91.9819H205.672V219.047ZM317.045 236.58C308.114 236.58 301.219 234.873 296.36 231.458C291.5 227.912 288.086 222.79 286.116 216.092C284.277 209.263 283.358 200.923 283.358 191.073V165.069C283.358 154.956 284.343 146.551 286.313 139.853C288.283 133.155 291.697 128.099 296.557 124.684C301.547 121.269 308.377 119.562 317.045 119.562C326.632 119.562 333.658 121.532 338.124 125.472C342.72 129.412 345.741 135.125 347.186 142.611C348.63 149.966 349.353 158.831 349.353 169.206V178.465H304.437V201.317C304.437 205.914 304.831 209.657 305.619 212.546C306.538 215.435 307.917 217.602 309.756 219.047C311.726 220.36 314.221 221.017 317.242 221.017C320.394 221.017 322.758 220.295 324.334 218.85C326.041 217.274 327.157 215.107 327.683 212.349C328.339 209.46 328.668 206.111 328.668 202.302V195.407H349.156V199.741C349.156 211.167 346.726 220.163 341.867 226.73C337.007 233.297 328.733 236.58 317.045 236.58ZM304.437 167.039H328.668V156.795C328.668 152.067 328.405 148.127 327.88 144.975C327.354 141.692 326.238 139.262 324.531 137.686C322.955 135.979 320.394 135.125 316.848 135.125C313.433 135.125 310.806 135.913 308.968 137.489C307.26 139.065 306.078 141.757 305.422 145.566C304.765 149.243 304.437 154.365 304.437 160.932V167.039ZM368.442 235.004V121.138H389.521V132.367C393.329 128.821 397.532 125.8 402.129 123.305C406.725 120.81 411.782 119.562 417.298 119.562C421.894 119.562 425.375 120.744 427.739 123.108C430.234 125.472 431.941 128.427 432.861 131.973C433.911 135.519 434.437 139.131 434.437 142.808V235.004H413.358V148.915C413.358 144.844 412.767 141.692 411.585 139.459C410.403 137.226 407.973 136.11 404.296 136.11C401.932 136.11 399.436 136.832 396.81 138.277C394.314 139.59 391.885 141.232 389.521 143.202V235.004H368.442ZM469.789 235.004L447.331 121.138H468.607L482.594 212.743L496.778 121.138H517.266L495.596 235.004H469.789ZM562.333 236.58C553.402 236.58 546.507 234.873 541.648 231.458C536.788 227.912 533.374 222.79 531.404 216.092C529.565 209.263 528.646 200.923 528.646 191.073V165.069C528.646 154.956 529.631 146.551 531.601 139.853C533.571 133.155 536.985 128.099 541.845 124.684C546.835 121.269 553.665 119.562 562.333 119.562C571.92 119.562 578.946 121.532 583.412 125.472C588.008 129.412 591.029 135.125 592.474 142.611C593.918 149.966 594.641 158.831 594.641 169.206V178.465H549.725V201.317C549.725 205.914 550.119 209.657 550.907 212.546C551.826 215.435 553.205 217.602 555.044 219.047C557.014 220.36 559.509 221.017 562.53 221.017C565.682 221.017 568.046 220.295 569.622 218.85C571.329 217.274 572.445 215.107 572.971 212.349C573.627 209.46 573.956 206.111 573.956 202.302V195.407H594.444V199.741C594.444 211.167 592.014 220.163 587.155 226.73C582.295 233.297 574.021 236.58 562.333 236.58ZM549.725 167.039H573.956V156.795C573.956 152.067 573.693 148.127 573.168 144.975C572.642 141.692 571.526 139.262 569.819 137.686C568.243 135.979 565.682 135.125 562.136 135.125C558.721 135.125 556.094 135.913 554.256 137.489C552.548 139.065 551.366 141.757 550.71 145.566C550.053 149.243 549.725 154.365 549.725 160.932V167.039ZM614.321 235.004V121.138H635.4V137.292C639.602 130.331 643.805 125.669 648.008 123.305C652.21 120.941 656.413 119.759 660.616 119.759C661.141 119.759 661.601 119.759 661.995 119.759C662.52 119.759 663.177 119.825 663.965 119.956V143.202C662.389 142.545 660.55 142.02 658.449 141.626C656.479 141.101 654.443 140.838 652.342 140.838C649.058 140.838 646.038 141.626 643.28 143.202C640.653 144.647 638.026 147.536 635.4 151.87V235.004H614.321Z" fill="white"/>
</g>
<defs>
<filter id="filter0_d" x="177.411" y="72.4341" width="492.554" height="173.146" filterUnits="userSpaceOnUse" color-interpolation-filters="sRGB">
<feFlood flood-opacity="0" result="BackgroundImageFix"/>
<feColorMatrix in="SourceAlpha" type="matrix" values="0 0 0 0 0 0 0 0 0 0 0 0 0 0 0 0 0 0 127 0" result="hardAlpha"/>
<feOffset dy="3"/>
<feGaussianBlur stdDeviation="3"/>
<feColorMatrix type="matrix" values="0 0 0 0 0 0 0 0 0 0 0 0 0 0 0 0 0 0 0.161 0"/>
<feBlend mode="normal" in2="BackgroundImageFix" result="effect1_dropShadow"/>
<feBlend mode="normal" in="SourceGraphic" in2="effect1_dropShadow" result="shape"/>
</filter>
</defs>
</svg>
